<svg id="Layer_1_copy" height="512" viewBox="0 0 64 64" width="512" xmlns="http://www.w3.org/2000/svg" data-name="Layer 1 copy"><path d="m16 30h32v8h-32z" fill="#f7941e"/><path d="m11 48h42v15h-42z" fill="#f7941e"/><g opacity=".5"><path d="m11 48h42v4h-42z" fill="#aa6111"/></g><path d="m38 59v4h-12v-4a6 6 0 0 1 12 0z" fill="#844215"/><path d="m20 16h24v4h-24z" fill="#f7941e"/><path d="m24 8 8-7 9 7z" fill="#f7941e"/><g fill="#aa1329"><path d="m53 15h-21v-7h9z"/><path d="m5 31a1 1 0 0 1 -1-1v-5a1 1 0 0 1 2 0v5a1 1 0 0 1 -1 1z"/><path d="m11 16a1 1 0 0 1 -1-1v-5a1 1 0 0 1 2 0v5a1 1 0 0 1 -1 1z"/><path d="m53 16a1 1 0 0 1 -1-1v-5a1 1 0 0 1 2 0v5a1 1 0 0 1 -1 1z"/><path d="m59 31a1 1 0 0 1 -1-1v-5a1 1 0 0 1 2 0v5a1 1 0 0 1 -1 1z"/><path d="m62 49a1 1 0 0 1 -1-1v-5a1 1 0 0 1 2 0v5a1 1 0 0 1 -1 1z"/><path d="m2 49a1 1 0 0 1 -1-1v-5a1 1 0 0 1 2 0v5a1 1 0 0 1 -1 1z"/></g><path d="m23 36a1 1 0 0 1 -1-1v-2a1 1 0 0 1 2 0v2a1 1 0 0 1 -1 1z" fill="#ce730f"/><path d="m16 57a1 1 0 0 1 -1-1v-4a1 1 0 0 1 2 0v4a1 1 0 0 1 -1 1z" fill="#844215"/><path d="m21 57a1 1 0 0 1 -1-1v-4a1 1 0 0 1 2 0v4a1 1 0 0 1 -1 1z" fill="#844215"/><path d="m43 57a1 1 0 0 1 -1-1v-4a1 1 0 0 1 2 0v4a1 1 0 0 1 -1 1z" fill="#844215"/><path d="m48 57a1 1 0 0 1 -1-1v-4a1 1 0 0 1 2 0v4a1 1 0 0 1 -1 1z" fill="#844215"/><path d="m29 36a1 1 0 0 1 -1-1v-2a1 1 0 0 1 2 0v2a1 1 0 0 1 -1 1z" fill="#ce730f"/><path d="m35 36a1 1 0 0 1 -1-1v-2a1 1 0 0 1 2 0v2a1 1 0 0 1 -1 1z" fill="#ce730f"/><path d="m41 36a1 1 0 0 1 -1-1v-2a1 1 0 0 1 2 0v2a1 1 0 0 1 -1 1z" fill="#ce730f"/><path d="m63 48.31a1 1 0 0 1 -1 .69h-60a1 1 0 0 1 -.34-1.94c2.1-.75 12.43-8.27 13.56-9.68a1 1 0 0 1 .78-.38h32a.94.94 0 0 1 .58.19l14 10a1 1 0 0 1 .42 1.12z" fill="#e72b3f"/><path d="m60 30.19a1 1 0 0 1 -1 .81h-54a1 1 0 0 1 -1-.81 1 1 0 0 1 .61-1.12c2-.8 11.22-7.35 12.16-8.65a1 1 0 0 1 .83-.42h28.8a1 1 0 0 1 .81.42c.94 1.3 10.14 7.85 12.16 8.65a1 1 0 0 1 .63 1.12z" fill="#e72b3f"/><path d="m54 15.26a1 1 0 0 1 -1 .74h-42a1 1 0 0 1 -.47-1.88l13-7a.94.94 0 0 1 .47-.12h17a1 1 0 0 1 .5.14l12 7a1 1 0 0 1 .5 1.12z" fill="#e72b3f"/><path d="m53 16h-21v-9h9a1 1 0 0 1 .5.14l12 7a1 1 0 0 1 -.5 1.86z" fill="#aa1329"/><path d="m59 31h-27v-11h14.4a1 1 0 0 1 .81.42c.94 1.3 10.14 7.85 12.16 8.65a1 1 0 0 1 .63 1.12 1 1 0 0 1 -1 .81z" fill="#aa1329"/><path d="m63 48.31a1 1 0 0 1 -1 .69h-30v-12h16a.94.94 0 0 1 .58.19l14 10a1 1 0 0 1 .42 1.12z" fill="#aa1329"/><path d="m22 26h-1a1 1 0 0 1 0-2h1a1 1 0 0 1 0 2z" fill="#aa1329"/><path d="m26 26h-1a1 1 0 0 1 0-2h1a1 1 0 0 1 0 2z" fill="#aa1329"/></svg>